<mxfile host="app.diagrams.net" modified="2023-02-10T01:47:25.912Z" agent="5.0 (Macintosh; Intel Mac OS X 10_15_7) AppleWebKit/537.36 (KHTML, like Gecko) Chrome/109.0.0.0 Safari/537.36" etag="0JqyC8oPV0YIlabdyFxY" version="20.8.16" type="github">
  <diagram id="_HqFRDxbVKVlbJKqddwO" name="Page-1">
    <mxGraphModel dx="2021" dy="1785" grid="1" gridSize="10" guides="1" tooltips="1" connect="1" arrows="1" fold="1" page="1" pageScale="1" pageWidth="827" pageHeight="1169" math="0" shadow="0">
      <root>
        <mxCell id="0" />
        <mxCell id="1" parent="0" />
        <mxCell id="gOMvf-8AE3hnGqFUwbad-110" value="" style="rounded=1;whiteSpace=wrap;html=1;fontSize=10;fontColor=#333333;dashed=1;shadow=0;gradientDirection=north;gradientColor=#FFFFFF;fillColor=none;strokeColor=#FF66B3;strokeWidth=3;" parent="1" vertex="1">
          <mxGeometry x="510" y="-26" width="510" height="770" as="geometry" />
        </mxCell>
        <mxCell id="gOMvf-8AE3hnGqFUwbad-3" value="用户" style="rounded=0;whiteSpace=wrap;html=1;fillColor=#B2C9AB;strokeColor=#788AA3;fontColor=#46495D;" parent="1" vertex="1">
          <mxGeometry width="120" height="60" as="geometry" />
        </mxCell>
        <mxCell id="gOMvf-8AE3hnGqFUwbad-4" value="金蝶云APP" style="rounded=0;whiteSpace=wrap;html=1;fillColor=#B2C9AB;strokeColor=#788AA3;fontColor=#46495D;" parent="1" vertex="1">
          <mxGeometry x="180" width="120" height="60" as="geometry" />
        </mxCell>
        <mxCell id="gOMvf-8AE3hnGqFUwbad-5" value="星辰业务后台" style="rounded=0;whiteSpace=wrap;html=1;fillColor=#B2C9AB;strokeColor=#788AA3;fontColor=#46495D;" parent="1" vertex="1">
          <mxGeometry x="550" width="120" height="60" as="geometry" />
        </mxCell>
        <mxCell id="gOMvf-8AE3hnGqFUwbad-23" value="云平台" style="rounded=0;whiteSpace=wrap;html=1;fillColor=#B2C9AB;strokeColor=#788AA3;fontColor=#46495D;" parent="1" vertex="1">
          <mxGeometry x="354" width="120" height="60" as="geometry" />
        </mxCell>
        <mxCell id="gOMvf-8AE3hnGqFUwbad-30" value="金蝶云APP后台管理消息中心" style="rounded=0;whiteSpace=wrap;html=1;fillColor=#B2C9AB;strokeColor=#788AA3;fontColor=#46495D;" parent="1" vertex="1">
          <mxGeometry x="870" width="120" height="60" as="geometry" />
        </mxCell>
        <mxCell id="gOMvf-8AE3hnGqFUwbad-36" value="" style="rounded=0;whiteSpace=wrap;html=1;fillColor=#FFF4C3;" parent="1" vertex="1">
          <mxGeometry x="55" y="60" width="10" height="620" as="geometry" />
        </mxCell>
        <mxCell id="gOMvf-8AE3hnGqFUwbad-37" value="" style="rounded=0;whiteSpace=wrap;html=1;fillColor=#FFF4C3;" parent="1" vertex="1">
          <mxGeometry x="235" y="60" width="10" height="620" as="geometry" />
        </mxCell>
        <mxCell id="gOMvf-8AE3hnGqFUwbad-38" value="" style="endArrow=classic;html=1;exitX=1.2;exitY=0.035;exitDx=0;exitDy=0;exitPerimeter=0;" parent="1" source="gOMvf-8AE3hnGqFUwbad-36" edge="1">
          <mxGeometry width="50" height="50" relative="1" as="geometry">
            <mxPoint x="70" y="130" as="sourcePoint" />
            <mxPoint x="234" y="82" as="targetPoint" />
          </mxGeometry>
        </mxCell>
        <mxCell id="gOMvf-8AE3hnGqFUwbad-39" value="1.用户登录" style="text;html=1;strokeColor=none;fillColor=none;align=center;verticalAlign=middle;whiteSpace=wrap;rounded=0;" parent="1" vertex="1">
          <mxGeometry x="120" y="60" width="70" height="20" as="geometry" />
        </mxCell>
        <mxCell id="gOMvf-8AE3hnGqFUwbad-40" value="" style="endArrow=classic;html=1;entryX=0;entryY=0;entryDx=0;entryDy=0;" parent="1" edge="1">
          <mxGeometry width="50" height="50" relative="1" as="geometry">
            <mxPoint x="250" y="106" as="sourcePoint" />
            <mxPoint x="409" y="106" as="targetPoint" />
          </mxGeometry>
        </mxCell>
        <mxCell id="gOMvf-8AE3hnGqFUwbad-50" value="2.获取access_token" style="edgeLabel;html=1;align=center;verticalAlign=middle;resizable=0;points=[];" parent="gOMvf-8AE3hnGqFUwbad-40" vertex="1" connectable="0">
          <mxGeometry x="0.1572" y="-1" relative="1" as="geometry">
            <mxPoint x="-12" y="-17" as="offset" />
          </mxGeometry>
        </mxCell>
        <mxCell id="gOMvf-8AE3hnGqFUwbad-44" value="" style="endArrow=classic;html=1;" parent="1" edge="1">
          <mxGeometry width="50" height="50" relative="1" as="geometry">
            <mxPoint x="400" y="153" as="sourcePoint" />
            <mxPoint x="248" y="153" as="targetPoint" />
          </mxGeometry>
        </mxCell>
        <mxCell id="gOMvf-8AE3hnGqFUwbad-45" value="3.返回access_token" style="text;html=1;strokeColor=none;fillColor=none;align=center;verticalAlign=middle;whiteSpace=wrap;rounded=0;" parent="1" vertex="1">
          <mxGeometry x="270" y="120" width="120" height="20" as="geometry" />
        </mxCell>
        <mxCell id="gOMvf-8AE3hnGqFUwbad-53" value="" style="endArrow=classic;html=1;entryX=0;entryY=0;entryDx=0;entryDy=0;" parent="1" edge="1">
          <mxGeometry width="50" height="50" relative="1" as="geometry">
            <mxPoint x="246" y="199" as="sourcePoint" />
            <mxPoint x="605" y="199" as="targetPoint" />
          </mxGeometry>
        </mxCell>
        <mxCell id="gOMvf-8AE3hnGqFUwbad-54" value="4. 新增销售出库单 并且保存" style="edgeLabel;html=1;align=center;verticalAlign=middle;resizable=0;points=[];" parent="gOMvf-8AE3hnGqFUwbad-53" vertex="1" connectable="0">
          <mxGeometry x="0.1572" y="-1" relative="1" as="geometry">
            <mxPoint x="-54" y="-17" as="offset" />
          </mxGeometry>
        </mxCell>
        <mxCell id="gOMvf-8AE3hnGqFUwbad-63" value="" style="endArrow=classic;html=1;entryX=-0.1;entryY=0.113;entryDx=0;entryDy=0;entryPerimeter=0;" parent="1" edge="1">
          <mxGeometry width="50" height="50" relative="1" as="geometry">
            <mxPoint x="620" y="216" as="sourcePoint" />
            <mxPoint x="784" y="216.063" as="targetPoint" />
          </mxGeometry>
        </mxCell>
        <mxCell id="gOMvf-8AE3hnGqFUwbad-64" value="5. 携带access_token&lt;br&gt;推送消息" style="edgeLabel;html=1;align=center;verticalAlign=middle;resizable=0;points=[];" parent="1" vertex="1" connectable="0">
          <mxGeometry x="700" y="199" as="geometry">
            <mxPoint x="-4" as="offset" />
          </mxGeometry>
        </mxCell>
        <mxCell id="gOMvf-8AE3hnGqFUwbad-65" value="" style="endArrow=classic;html=1;" parent="1" edge="1">
          <mxGeometry width="50" height="50" relative="1" as="geometry">
            <mxPoint x="780" y="260" as="sourcePoint" />
            <mxPoint x="250" y="260" as="targetPoint" />
          </mxGeometry>
        </mxCell>
        <mxCell id="gOMvf-8AE3hnGqFUwbad-66" value="6.通过SDK，推送到手机设备" style="edgeLabel;html=1;align=center;verticalAlign=middle;resizable=0;points=[];" parent="1" vertex="1" connectable="0">
          <mxGeometry x="460" y="250" as="geometry" />
        </mxCell>
        <mxCell id="gOMvf-8AE3hnGqFUwbad-69" value="" style="endArrow=classic;html=1;" parent="1" edge="1">
          <mxGeometry width="50" height="50" relative="1" as="geometry">
            <mxPoint x="230" y="310" as="sourcePoint" />
            <mxPoint x="70" y="310" as="targetPoint" />
          </mxGeometry>
        </mxCell>
        <mxCell id="gOMvf-8AE3hnGqFUwbad-72" value="7.用户收到系统级消息" style="text;html=1;align=center;verticalAlign=middle;resizable=0;points=[];autosize=1;strokeColor=none;" parent="1" vertex="1">
          <mxGeometry x="80" y="280" width="130" height="20" as="geometry" />
        </mxCell>
        <mxCell id="gOMvf-8AE3hnGqFUwbad-74" value="" style="endArrow=classic;html=1;" parent="1" edge="1">
          <mxGeometry width="50" height="50" relative="1" as="geometry">
            <mxPoint x="70" y="360" as="sourcePoint" />
            <mxPoint x="230" y="360" as="targetPoint" />
          </mxGeometry>
        </mxCell>
        <mxCell id="gOMvf-8AE3hnGqFUwbad-75" value="8.用户查询待审核消息" style="text;html=1;align=center;verticalAlign=middle;resizable=0;points=[];autosize=1;strokeColor=none;" parent="1" vertex="1">
          <mxGeometry x="80" y="330" width="130" height="20" as="geometry" />
        </mxCell>
        <mxCell id="gOMvf-8AE3hnGqFUwbad-84" value="9.查询销售出库单详情" style="edgeStyle=orthogonalEdgeStyle;html=1;align=left;spacingLeft=2;endArrow=block;rounded=0;" parent="1" edge="1">
          <mxGeometry relative="1" as="geometry">
            <mxPoint x="250" y="377" as="sourcePoint" />
            <Array as="points">
              <mxPoint x="310" y="377" />
              <mxPoint x="310" y="420" />
            </Array>
            <mxPoint x="250" y="420" as="targetPoint" />
          </mxGeometry>
        </mxCell>
        <mxCell id="gOMvf-8AE3hnGqFUwbad-86" value="" style="html=1;points=[];perimeter=orthogonalPerimeter;strokeColor=#FFFFFF;fillColor=#FF0000;" parent="1" vertex="1">
          <mxGeometry x="605" y="440" width="10" height="80" as="geometry" />
        </mxCell>
        <mxCell id="gOMvf-8AE3hnGqFUwbad-87" value="10.审核" style="html=1;verticalAlign=bottom;endArrow=block;entryX=0;entryY=0;" parent="1" target="gOMvf-8AE3hnGqFUwbad-86" edge="1">
          <mxGeometry relative="1" as="geometry">
            <mxPoint x="250" y="440" as="sourcePoint" />
          </mxGeometry>
        </mxCell>
        <mxCell id="gOMvf-8AE3hnGqFUwbad-88" value="11.审核成功" style="html=1;verticalAlign=bottom;endArrow=open;dashed=1;endSize=8;exitX=0;exitY=0.95;" parent="1" source="gOMvf-8AE3hnGqFUwbad-86" edge="1">
          <mxGeometry relative="1" as="geometry">
            <mxPoint x="250" y="516" as="targetPoint" />
          </mxGeometry>
        </mxCell>
        <mxCell id="gOMvf-8AE3hnGqFUwbad-89" value="" style="html=1;points=[];perimeter=orthogonalPerimeter;strokeColor=#FFFFFF;fillColor=#FF0000;" parent="1" vertex="1">
          <mxGeometry x="785" y="460" width="10" height="80" as="geometry" />
        </mxCell>
        <mxCell id="gOMvf-8AE3hnGqFUwbad-90" value="" style="endArrow=classic;html=1;entryX=-0.1;entryY=0.113;entryDx=0;entryDy=0;entryPerimeter=0;" parent="1" edge="1">
          <mxGeometry width="50" height="50" relative="1" as="geometry">
            <mxPoint x="618" y="470" as="sourcePoint" />
            <mxPoint x="782" y="470.063" as="targetPoint" />
          </mxGeometry>
        </mxCell>
        <mxCell id="gOMvf-8AE3hnGqFUwbad-91" value="11.携带access_token、&lt;br&gt;单据id、用户id、账套id&lt;br&gt;推送消息" style="text;html=1;align=center;verticalAlign=middle;resizable=0;points=[];autosize=1;strokeColor=none;" parent="1" vertex="1">
          <mxGeometry x="630" y="420" width="140" height="50" as="geometry" />
        </mxCell>
        <mxCell id="gOMvf-8AE3hnGqFUwbad-92" value="" style="edgeStyle=orthogonalEdgeStyle;html=1;align=left;spacingLeft=2;endArrow=block;rounded=0;" parent="1" edge="1">
          <mxGeometry relative="1" as="geometry">
            <mxPoint x="780" y="500" as="sourcePoint" />
            <Array as="points">
              <mxPoint x="750" y="500" />
              <mxPoint x="750" y="520" />
            </Array>
            <mxPoint x="780" y="520" as="targetPoint" />
          </mxGeometry>
        </mxCell>
        <mxCell id="gOMvf-8AE3hnGqFUwbad-93" value="12.消息中心标记已办" style="text;html=1;align=center;verticalAlign=middle;resizable=0;points=[];autosize=1;strokeColor=none;" parent="1" vertex="1">
          <mxGeometry x="623" y="500" width="130" height="20" as="geometry" />
        </mxCell>
        <mxCell id="gOMvf-8AE3hnGqFUwbad-94" value="" style="edgeStyle=orthogonalEdgeStyle;html=1;align=left;spacingLeft=2;endArrow=block;rounded=0;" parent="1" edge="1">
          <mxGeometry relative="1" as="geometry">
            <mxPoint x="780" y="290" as="sourcePoint" />
            <Array as="points">
              <mxPoint x="750" y="290" />
              <mxPoint x="750" y="310" />
            </Array>
            <mxPoint x="780" y="310" as="targetPoint" />
          </mxGeometry>
        </mxCell>
        <mxCell id="gOMvf-8AE3hnGqFUwbad-95" value="6.消息中心标记未办" style="text;html=1;align=center;verticalAlign=middle;resizable=0;points=[];autosize=1;strokeColor=none;" parent="1" vertex="1">
          <mxGeometry x="631" y="290" width="120" height="20" as="geometry" />
        </mxCell>
        <mxCell id="gOMvf-8AE3hnGqFUwbad-96" value="" style="html=1;points=[];perimeter=orthogonalPerimeter;strokeColor=#FFFFFF;fillColor=#FF0000;" parent="1" vertex="1">
          <mxGeometry x="785" y="190" width="10" height="140" as="geometry" />
        </mxCell>
        <mxCell id="gOMvf-8AE3hnGqFUwbad-97" value="" style="html=1;points=[];perimeter=orthogonalPerimeter;strokeColor=#FFFFFF;fillColor=#FF0000;" parent="1" vertex="1">
          <mxGeometry x="605" y="190" width="10" height="50" as="geometry" />
        </mxCell>
        <mxCell id="gOMvf-8AE3hnGqFUwbad-98" value="" style="html=1;points=[];perimeter=orthogonalPerimeter;strokeColor=#FFFFFF;fillColor=#FF0000;" parent="1" vertex="1">
          <mxGeometry x="409" y="100" width="10" height="60" as="geometry" />
        </mxCell>
        <mxCell id="gOMvf-8AE3hnGqFUwbad-100" value="" style="endArrow=classic;html=1;" parent="1" edge="1">
          <mxGeometry width="50" height="50" relative="1" as="geometry">
            <mxPoint x="70" y="570" as="sourcePoint" />
            <mxPoint x="230" y="570" as="targetPoint" />
          </mxGeometry>
        </mxCell>
        <mxCell id="gOMvf-8AE3hnGqFUwbad-101" value="13.查询消息里列表" style="text;html=1;align=center;verticalAlign=middle;resizable=0;points=[];autosize=1;strokeColor=none;" parent="1" vertex="1">
          <mxGeometry x="80" y="550" width="120" height="20" as="geometry" />
        </mxCell>
        <mxCell id="gOMvf-8AE3hnGqFUwbad-103" value="" style="html=1;points=[];perimeter=orthogonalPerimeter;strokeColor=#FFFFFF;fillColor=#FF0000;" parent="1" vertex="1">
          <mxGeometry x="785" y="585" width="10" height="80" as="geometry" />
        </mxCell>
        <mxCell id="gOMvf-8AE3hnGqFUwbad-104" value="14.查询（未办|已办|抄送）" style="html=1;verticalAlign=bottom;endArrow=block;entryX=0;entryY=0;" parent="1" target="gOMvf-8AE3hnGqFUwbad-103" edge="1">
          <mxGeometry relative="1" as="geometry">
            <mxPoint x="250" y="585" as="sourcePoint" />
          </mxGeometry>
        </mxCell>
        <mxCell id="gOMvf-8AE3hnGqFUwbad-105" value="15.返回数据" style="html=1;verticalAlign=bottom;endArrow=open;dashed=1;endSize=8;exitX=0;exitY=0.95;" parent="1" source="gOMvf-8AE3hnGqFUwbad-103" edge="1">
          <mxGeometry relative="1" as="geometry">
            <mxPoint x="250" y="661" as="targetPoint" />
          </mxGeometry>
        </mxCell>
        <mxCell id="gOMvf-8AE3hnGqFUwbad-106" value="接口:&lt;span lang=&quot;EN-US&quot; style=&quot;font-size: 10px;&quot;&gt;https://devtest.kingdee.com:2033/capp/kapi/app/bec/triggerEvent&lt;/span&gt;" style="whiteSpace=wrap;html=1;rounded=1;arcSize=50;align=center;verticalAlign=middle;strokeWidth=1;autosize=1;spacing=4;treeFolding=1;treeMoving=1;newEdgeStyle={&quot;edgeStyle&quot;:&quot;entityRelationEdgeStyle&quot;,&quot;startArrow&quot;:&quot;none&quot;,&quot;endArrow&quot;:&quot;none&quot;,&quot;segment&quot;:10,&quot;curved&quot;:1};fillColor=#FFF4C3;fontSize=10;" parent="1" vertex="1">
          <mxGeometry x="540" y="115" width="350" height="30" as="geometry" />
        </mxCell>
        <mxCell id="gOMvf-8AE3hnGqFUwbad-107" value="" style="edgeStyle=entityRelationEdgeStyle;startArrow=none;endArrow=none;segment=10;curved=1;entryX=0.5;entryY=1;entryDx=0;entryDy=0;" parent="1" target="gOMvf-8AE3hnGqFUwbad-106" edge="1">
          <mxGeometry relative="1" as="geometry">
            <mxPoint x="690" y="180" as="sourcePoint" />
          </mxGeometry>
        </mxCell>
        <mxCell id="gOMvf-8AE3hnGqFUwbad-108" value="接口:&lt;span lang=&quot;EN-US&quot; style=&quot;font-size: 10px;&quot;&gt;https://devtest.kingdee.com:2033/capp/kapi/app/bec/triggerEvent&lt;/span&gt;" style="whiteSpace=wrap;html=1;rounded=1;arcSize=50;align=center;verticalAlign=middle;strokeWidth=1;autosize=1;spacing=4;treeFolding=1;treeMoving=1;newEdgeStyle={&quot;edgeStyle&quot;:&quot;entityRelationEdgeStyle&quot;,&quot;startArrow&quot;:&quot;none&quot;,&quot;endArrow&quot;:&quot;none&quot;,&quot;segment&quot;:10,&quot;curved&quot;:1};fillColor=#FFF4C3;fontSize=10;" parent="1" vertex="1">
          <mxGeometry x="560" y="360" width="350" height="30" as="geometry" />
        </mxCell>
        <mxCell id="gOMvf-8AE3hnGqFUwbad-109" value="" style="edgeStyle=entityRelationEdgeStyle;startArrow=none;endArrow=none;segment=10;curved=1;entryX=0.5;entryY=1;entryDx=0;entryDy=0;exitX=0.467;exitY=0.017;exitDx=0;exitDy=0;exitPerimeter=0;" parent="1" source="gOMvf-8AE3hnGqFUwbad-91" target="gOMvf-8AE3hnGqFUwbad-108" edge="1">
          <mxGeometry relative="1" as="geometry">
            <mxPoint x="730" y="435" as="sourcePoint" />
            <mxPoint x="755" y="400" as="targetPoint" />
          </mxGeometry>
        </mxCell>
        <mxCell id="AIrc5cER0qf7u_csPJTF-1" value="星辰消息中心" style="rounded=0;whiteSpace=wrap;html=1;fillColor=#B2C9AB;strokeColor=#788AA3;fontColor=#46495D;" parent="1" vertex="1">
          <mxGeometry x="707" width="120" height="60" as="geometry" />
        </mxCell>
        <mxCell id="jYvoBhNM-cIZsKbCfK5Q-1" value="" style="rounded=1;whiteSpace=wrap;html=1;dashed=1;fillColor=none;strokeColor=#EA6B66;strokeWidth=3;" vertex="1" parent="1">
          <mxGeometry x="100" y="940" width="620" height="160" as="geometry" />
        </mxCell>
        <mxCell id="jYvoBhNM-cIZsKbCfK5Q-2" value="" style="edgeStyle=orthogonalEdgeStyle;rounded=0;orthogonalLoop=1;jettySize=auto;html=1;" edge="1" parent="1" source="jYvoBhNM-cIZsKbCfK5Q-3" target="jYvoBhNM-cIZsKbCfK5Q-5">
          <mxGeometry relative="1" as="geometry" />
        </mxCell>
        <mxCell id="jYvoBhNM-cIZsKbCfK5Q-3" value="消息生产" style="rounded=1;whiteSpace=wrap;html=1;fillColor=#d5e8d4;strokeColor=#82b366;" vertex="1" parent="1">
          <mxGeometry x="110" y="990" width="120" height="60" as="geometry" />
        </mxCell>
        <mxCell id="jYvoBhNM-cIZsKbCfK5Q-4" value="" style="edgeStyle=orthogonalEdgeStyle;rounded=0;orthogonalLoop=1;jettySize=auto;html=1;" edge="1" parent="1" source="jYvoBhNM-cIZsKbCfK5Q-5" target="jYvoBhNM-cIZsKbCfK5Q-7">
          <mxGeometry relative="1" as="geometry" />
        </mxCell>
        <mxCell id="jYvoBhNM-cIZsKbCfK5Q-5" value="消息管理中心" style="whiteSpace=wrap;html=1;rounded=1;fillColor=#fff2cc;strokeColor=#d6b656;" vertex="1" parent="1">
          <mxGeometry x="270" y="990" width="120" height="60" as="geometry" />
        </mxCell>
        <mxCell id="jYvoBhNM-cIZsKbCfK5Q-6" value="" style="edgeStyle=orthogonalEdgeStyle;rounded=0;orthogonalLoop=1;jettySize=auto;html=1;" edge="1" parent="1" source="jYvoBhNM-cIZsKbCfK5Q-7" target="jYvoBhNM-cIZsKbCfK5Q-8">
          <mxGeometry relative="1" as="geometry" />
        </mxCell>
        <mxCell id="jYvoBhNM-cIZsKbCfK5Q-7" value="消息任务&lt;br&gt;识别or构建" style="whiteSpace=wrap;html=1;rounded=1;fillColor=#d5e8d4;strokeColor=#82b366;" vertex="1" parent="1">
          <mxGeometry x="420" y="990" width="120" height="60" as="geometry" />
        </mxCell>
        <mxCell id="jYvoBhNM-cIZsKbCfK5Q-8" value="消息推送" style="whiteSpace=wrap;html=1;rounded=1;fillColor=#f8cecc;strokeColor=#b85450;" vertex="1" parent="1">
          <mxGeometry x="590" y="990" width="120" height="60" as="geometry" />
        </mxCell>
        <mxCell id="jYvoBhNM-cIZsKbCfK5Q-9" value="消息主体" style="whiteSpace=wrap;html=1;rounded=1;arcSize=50;align=center;verticalAlign=middle;strokeWidth=1;autosize=1;spacing=4;treeFolding=1;treeMoving=1;newEdgeStyle={&quot;edgeStyle&quot;:&quot;entityRelationEdgeStyle&quot;,&quot;startArrow&quot;:&quot;none&quot;,&quot;endArrow&quot;:&quot;none&quot;,&quot;segment&quot;:10,&quot;curved&quot;:1,&quot;sourcePerimeterSpacing&quot;:0,&quot;targetPerimeterSpacing&quot;:0};fillColor=#f8cecc;strokeColor=#b85450;" vertex="1" parent="1">
          <mxGeometry x="760" y="950" width="100" height="30" as="geometry" />
        </mxCell>
        <mxCell id="jYvoBhNM-cIZsKbCfK5Q-10" value="" style="edgeStyle=entityRelationEdgeStyle;startArrow=none;endArrow=none;segment=10;curved=1;sourcePerimeterSpacing=0;targetPerimeterSpacing=0;rounded=0;exitX=1;exitY=0.5;exitDx=0;exitDy=0;" edge="1" parent="1" source="jYvoBhNM-cIZsKbCfK5Q-8" target="jYvoBhNM-cIZsKbCfK5Q-9">
          <mxGeometry relative="1" as="geometry">
            <mxPoint x="830" y="1020" as="sourcePoint" />
          </mxGeometry>
        </mxCell>
        <mxCell id="jYvoBhNM-cIZsKbCfK5Q-11" value="接收主体" style="whiteSpace=wrap;html=1;rounded=1;arcSize=50;align=center;verticalAlign=middle;strokeWidth=1;autosize=1;spacing=4;treeFolding=1;treeMoving=1;newEdgeStyle={&quot;edgeStyle&quot;:&quot;entityRelationEdgeStyle&quot;,&quot;startArrow&quot;:&quot;none&quot;,&quot;endArrow&quot;:&quot;none&quot;,&quot;segment&quot;:10,&quot;curved&quot;:1,&quot;sourcePerimeterSpacing&quot;:0,&quot;targetPerimeterSpacing&quot;:0};fillColor=#f8cecc;strokeColor=#b85450;" vertex="1" parent="1">
          <mxGeometry x="760" y="994" width="100" height="30" as="geometry" />
        </mxCell>
        <mxCell id="jYvoBhNM-cIZsKbCfK5Q-12" value="" style="edgeStyle=entityRelationEdgeStyle;rounded=0;orthogonalLoop=1;jettySize=auto;html=1;startArrow=none;endArrow=none;segment=10;curved=1;sourcePerimeterSpacing=0;targetPerimeterSpacing=0;" edge="1" parent="1" source="jYvoBhNM-cIZsKbCfK5Q-15" target="jYvoBhNM-cIZsKbCfK5Q-18">
          <mxGeometry relative="1" as="geometry" />
        </mxCell>
        <mxCell id="jYvoBhNM-cIZsKbCfK5Q-13" value="" style="edgeStyle=entityRelationEdgeStyle;rounded=0;orthogonalLoop=1;jettySize=auto;html=1;startArrow=none;endArrow=none;segment=10;curved=1;sourcePerimeterSpacing=0;targetPerimeterSpacing=0;" edge="1" parent="1" source="jYvoBhNM-cIZsKbCfK5Q-15" target="jYvoBhNM-cIZsKbCfK5Q-18">
          <mxGeometry relative="1" as="geometry" />
        </mxCell>
        <mxCell id="jYvoBhNM-cIZsKbCfK5Q-14" value="" style="edgeStyle=entityRelationEdgeStyle;rounded=0;orthogonalLoop=1;jettySize=auto;html=1;startArrow=none;endArrow=none;segment=10;curved=1;sourcePerimeterSpacing=0;targetPerimeterSpacing=0;" edge="1" parent="1" source="jYvoBhNM-cIZsKbCfK5Q-15" target="jYvoBhNM-cIZsKbCfK5Q-18">
          <mxGeometry relative="1" as="geometry" />
        </mxCell>
        <mxCell id="jYvoBhNM-cIZsKbCfK5Q-15" value="消息推送渠道" style="whiteSpace=wrap;html=1;rounded=1;arcSize=50;align=center;verticalAlign=middle;strokeWidth=1;autosize=1;spacing=4;treeFolding=1;treeMoving=1;newEdgeStyle={&quot;edgeStyle&quot;:&quot;entityRelationEdgeStyle&quot;,&quot;startArrow&quot;:&quot;none&quot;,&quot;endArrow&quot;:&quot;none&quot;,&quot;segment&quot;:10,&quot;curved&quot;:1,&quot;sourcePerimeterSpacing&quot;:0,&quot;targetPerimeterSpacing&quot;:0};fontStyle=1;fillColor=#f8cecc;strokeColor=#b85450;" vertex="1" parent="1">
          <mxGeometry x="760" y="1040" width="100" height="30" as="geometry" />
        </mxCell>
        <mxCell id="jYvoBhNM-cIZsKbCfK5Q-16" value="" style="edgeStyle=entityRelationEdgeStyle;startArrow=none;endArrow=none;segment=10;curved=1;sourcePerimeterSpacing=0;targetPerimeterSpacing=0;rounded=0;exitX=1;exitY=0.5;exitDx=0;exitDy=0;entryX=0;entryY=0.5;entryDx=0;entryDy=0;" edge="1" parent="1" source="jYvoBhNM-cIZsKbCfK5Q-8" target="jYvoBhNM-cIZsKbCfK5Q-11">
          <mxGeometry relative="1" as="geometry">
            <mxPoint x="840" y="1032" as="sourcePoint" />
            <mxPoint x="870" y="1005" as="targetPoint" />
          </mxGeometry>
        </mxCell>
        <mxCell id="jYvoBhNM-cIZsKbCfK5Q-17" value="" style="edgeStyle=entityRelationEdgeStyle;startArrow=none;endArrow=none;segment=10;curved=1;sourcePerimeterSpacing=0;targetPerimeterSpacing=0;rounded=0;exitX=1;exitY=0.5;exitDx=0;exitDy=0;" edge="1" parent="1" source="jYvoBhNM-cIZsKbCfK5Q-8" target="jYvoBhNM-cIZsKbCfK5Q-15">
          <mxGeometry relative="1" as="geometry">
            <mxPoint x="830" y="1020" as="sourcePoint" />
            <mxPoint x="870" y="1045" as="targetPoint" />
          </mxGeometry>
        </mxCell>
        <mxCell id="jYvoBhNM-cIZsKbCfK5Q-18" value="短信" style="whiteSpace=wrap;html=1;rounded=1;arcSize=50;align=center;verticalAlign=middle;strokeWidth=1;autosize=1;spacing=4;treeFolding=1;treeMoving=1;newEdgeStyle={&quot;edgeStyle&quot;:&quot;entityRelationEdgeStyle&quot;,&quot;startArrow&quot;:&quot;none&quot;,&quot;endArrow&quot;:&quot;none&quot;,&quot;segment&quot;:10,&quot;curved&quot;:1,&quot;sourcePerimeterSpacing&quot;:0,&quot;targetPerimeterSpacing&quot;:0};fontStyle=1;fillColor=#d5e8d4;strokeColor=#82b366;" vertex="1" parent="1">
          <mxGeometry x="930" y="960" width="100" height="30" as="geometry" />
        </mxCell>
        <mxCell id="jYvoBhNM-cIZsKbCfK5Q-19" value="邮件" style="whiteSpace=wrap;html=1;rounded=1;arcSize=50;align=center;verticalAlign=middle;strokeWidth=1;autosize=1;spacing=4;treeFolding=1;treeMoving=1;newEdgeStyle={&quot;edgeStyle&quot;:&quot;entityRelationEdgeStyle&quot;,&quot;startArrow&quot;:&quot;none&quot;,&quot;endArrow&quot;:&quot;none&quot;,&quot;segment&quot;:10,&quot;curved&quot;:1,&quot;sourcePerimeterSpacing&quot;:0,&quot;targetPerimeterSpacing&quot;:0};fontStyle=1;fillColor=#d5e8d4;strokeColor=#82b366;" vertex="1" parent="1">
          <mxGeometry x="930" y="995" width="100" height="30" as="geometry" />
        </mxCell>
        <mxCell id="jYvoBhNM-cIZsKbCfK5Q-20" value="企业微信" style="whiteSpace=wrap;html=1;rounded=1;arcSize=50;align=center;verticalAlign=middle;strokeWidth=1;autosize=1;spacing=4;treeFolding=1;treeMoving=1;newEdgeStyle={&quot;edgeStyle&quot;:&quot;entityRelationEdgeStyle&quot;,&quot;startArrow&quot;:&quot;none&quot;,&quot;endArrow&quot;:&quot;none&quot;,&quot;segment&quot;:10,&quot;curved&quot;:1,&quot;sourcePerimeterSpacing&quot;:0,&quot;targetPerimeterSpacing&quot;:0};fontStyle=1;fillColor=#d5e8d4;strokeColor=#82b366;" vertex="1" parent="1">
          <mxGeometry x="930" y="1035" width="100" height="30" as="geometry" />
        </mxCell>
        <mxCell id="jYvoBhNM-cIZsKbCfK5Q-21" value="钉钉" style="whiteSpace=wrap;html=1;rounded=1;arcSize=50;align=center;verticalAlign=middle;strokeWidth=1;autosize=1;spacing=4;treeFolding=1;treeMoving=1;newEdgeStyle={&quot;edgeStyle&quot;:&quot;entityRelationEdgeStyle&quot;,&quot;startArrow&quot;:&quot;none&quot;,&quot;endArrow&quot;:&quot;none&quot;,&quot;segment&quot;:10,&quot;curved&quot;:1,&quot;sourcePerimeterSpacing&quot;:0,&quot;targetPerimeterSpacing&quot;:0};fontStyle=1;fillColor=#d5e8d4;strokeColor=#82b366;" vertex="1" parent="1">
          <mxGeometry x="930" y="1075" width="100" height="30" as="geometry" />
        </mxCell>
        <mxCell id="jYvoBhNM-cIZsKbCfK5Q-22" value="APP" style="whiteSpace=wrap;html=1;rounded=1;arcSize=50;align=center;verticalAlign=middle;strokeWidth=1;autosize=1;spacing=4;treeFolding=1;treeMoving=1;newEdgeStyle={&quot;edgeStyle&quot;:&quot;entityRelationEdgeStyle&quot;,&quot;startArrow&quot;:&quot;none&quot;,&quot;endArrow&quot;:&quot;none&quot;,&quot;segment&quot;:10,&quot;curved&quot;:1,&quot;sourcePerimeterSpacing&quot;:0,&quot;targetPerimeterSpacing&quot;:0};fontStyle=1;fillColor=#d5e8d4;strokeColor=#82b366;" vertex="1" parent="1">
          <mxGeometry x="930" y="1115" width="100" height="30" as="geometry" />
        </mxCell>
        <mxCell id="jYvoBhNM-cIZsKbCfK5Q-23" value="Web" style="whiteSpace=wrap;html=1;rounded=1;arcSize=50;align=center;verticalAlign=middle;strokeWidth=1;autosize=1;spacing=4;treeFolding=1;treeMoving=1;newEdgeStyle={&quot;edgeStyle&quot;:&quot;entityRelationEdgeStyle&quot;,&quot;startArrow&quot;:&quot;none&quot;,&quot;endArrow&quot;:&quot;none&quot;,&quot;segment&quot;:10,&quot;curved&quot;:1,&quot;sourcePerimeterSpacing&quot;:0,&quot;targetPerimeterSpacing&quot;:0};fontStyle=1;fillColor=#d5e8d4;strokeColor=#82b366;" vertex="1" parent="1">
          <mxGeometry x="930" y="1155" width="100" height="30" as="geometry" />
        </mxCell>
        <mxCell id="jYvoBhNM-cIZsKbCfK5Q-24" value="定时任务" style="rounded=1;whiteSpace=wrap;html=1;fillColor=#f8cecc;strokeColor=#b85450;" vertex="1" parent="1">
          <mxGeometry x="-50" y="920" width="100" height="60" as="geometry" />
        </mxCell>
        <mxCell id="jYvoBhNM-cIZsKbCfK5Q-25" value="Api业务调用" style="rounded=1;whiteSpace=wrap;html=1;fillColor=#f8cecc;strokeColor=#b85450;" vertex="1" parent="1">
          <mxGeometry x="-50" y="990" width="100" height="60" as="geometry" />
        </mxCell>
        <mxCell id="jYvoBhNM-cIZsKbCfK5Q-26" value="MsgQueue队列" style="rounded=1;whiteSpace=wrap;html=1;fillColor=#f8cecc;strokeColor=#b85450;" vertex="1" parent="1">
          <mxGeometry x="-50" y="1060" width="100" height="60" as="geometry" />
        </mxCell>
        <mxCell id="jYvoBhNM-cIZsKbCfK5Q-27" value="" style="edgeStyle=entityRelationEdgeStyle;startArrow=none;endArrow=none;segment=10;curved=1;sourcePerimeterSpacing=0;targetPerimeterSpacing=0;rounded=0;entryX=0;entryY=0.5;entryDx=0;entryDy=0;exitX=1;exitY=0.5;exitDx=0;exitDy=0;" edge="1" parent="1" source="jYvoBhNM-cIZsKbCfK5Q-26" target="jYvoBhNM-cIZsKbCfK5Q-3">
          <mxGeometry relative="1" as="geometry">
            <mxPoint x="80" y="1060" as="sourcePoint" />
            <mxPoint x="40" y="960" as="targetPoint" />
          </mxGeometry>
        </mxCell>
        <mxCell id="jYvoBhNM-cIZsKbCfK5Q-28" value="转发" style="edgeLabel;html=1;align=center;verticalAlign=middle;resizable=0;points=[];fontSize=14;fontColor=#707070;" vertex="1" connectable="0" parent="jYvoBhNM-cIZsKbCfK5Q-27">
          <mxGeometry x="-0.0592" y="-3" relative="1" as="geometry">
            <mxPoint as="offset" />
          </mxGeometry>
        </mxCell>
        <mxCell id="jYvoBhNM-cIZsKbCfK5Q-29" value="" style="edgeStyle=entityRelationEdgeStyle;startArrow=none;endArrow=none;segment=10;curved=1;sourcePerimeterSpacing=0;targetPerimeterSpacing=0;rounded=0;entryX=0;entryY=0.5;entryDx=0;entryDy=0;exitX=1;exitY=0.5;exitDx=0;exitDy=0;" edge="1" parent="1" source="jYvoBhNM-cIZsKbCfK5Q-25" target="jYvoBhNM-cIZsKbCfK5Q-3">
          <mxGeometry relative="1" as="geometry">
            <mxPoint x="40" y="1100" as="sourcePoint" />
            <mxPoint x="120" y="1030" as="targetPoint" />
          </mxGeometry>
        </mxCell>
        <mxCell id="jYvoBhNM-cIZsKbCfK5Q-30" value="调用" style="edgeLabel;html=1;align=center;verticalAlign=middle;resizable=0;points=[];fontSize=14;fontColor=#707070;" vertex="1" connectable="0" parent="jYvoBhNM-cIZsKbCfK5Q-29">
          <mxGeometry x="-0.1667" relative="1" as="geometry">
            <mxPoint as="offset" />
          </mxGeometry>
        </mxCell>
        <mxCell id="jYvoBhNM-cIZsKbCfK5Q-31" value="" style="edgeStyle=entityRelationEdgeStyle;startArrow=none;endArrow=none;segment=10;curved=1;sourcePerimeterSpacing=0;targetPerimeterSpacing=0;rounded=0;exitX=1;exitY=0.5;exitDx=0;exitDy=0;" edge="1" parent="1" source="jYvoBhNM-cIZsKbCfK5Q-24">
          <mxGeometry relative="1" as="geometry">
            <mxPoint x="40" y="1030" as="sourcePoint" />
            <mxPoint x="110" y="1020" as="targetPoint" />
          </mxGeometry>
        </mxCell>
        <mxCell id="jYvoBhNM-cIZsKbCfK5Q-32" value="驱动" style="edgeLabel;html=1;align=center;verticalAlign=middle;resizable=0;points=[];fontSize=14;fontColor=#707070;" vertex="1" connectable="0" parent="jYvoBhNM-cIZsKbCfK5Q-31">
          <mxGeometry x="-0.1874" relative="1" as="geometry">
            <mxPoint as="offset" />
          </mxGeometry>
        </mxCell>
        <mxCell id="jYvoBhNM-cIZsKbCfK5Q-33" value="" style="edgeStyle=entityRelationEdgeStyle;rounded=0;orthogonalLoop=1;jettySize=auto;html=1;startArrow=none;endArrow=none;segment=10;curved=1;sourcePerimeterSpacing=0;targetPerimeterSpacing=0;entryX=0;entryY=0.5;entryDx=0;entryDy=0;exitX=1;exitY=0.5;exitDx=0;exitDy=0;" edge="1" parent="1" source="jYvoBhNM-cIZsKbCfK5Q-15" target="jYvoBhNM-cIZsKbCfK5Q-19">
          <mxGeometry relative="1" as="geometry">
            <mxPoint x="885" y="1060" as="sourcePoint" />
            <mxPoint x="915" y="1030" as="targetPoint" />
          </mxGeometry>
        </mxCell>
        <mxCell id="jYvoBhNM-cIZsKbCfK5Q-34" value="" style="edgeStyle=entityRelationEdgeStyle;rounded=0;orthogonalLoop=1;jettySize=auto;html=1;startArrow=none;endArrow=none;segment=10;curved=1;sourcePerimeterSpacing=0;targetPerimeterSpacing=0;entryX=0;entryY=0.5;entryDx=0;entryDy=0;exitX=1;exitY=0.5;exitDx=0;exitDy=0;" edge="1" parent="1" source="jYvoBhNM-cIZsKbCfK5Q-15" target="jYvoBhNM-cIZsKbCfK5Q-20">
          <mxGeometry relative="1" as="geometry">
            <mxPoint x="885" y="1050" as="sourcePoint" />
            <mxPoint x="945" y="1020" as="targetPoint" />
          </mxGeometry>
        </mxCell>
        <mxCell id="jYvoBhNM-cIZsKbCfK5Q-35" value="" style="edgeStyle=entityRelationEdgeStyle;rounded=0;orthogonalLoop=1;jettySize=auto;html=1;startArrow=none;endArrow=none;segment=10;curved=1;sourcePerimeterSpacing=0;targetPerimeterSpacing=0;entryX=0;entryY=0.5;entryDx=0;entryDy=0;exitX=1;exitY=0.5;exitDx=0;exitDy=0;" edge="1" parent="1" source="jYvoBhNM-cIZsKbCfK5Q-15" target="jYvoBhNM-cIZsKbCfK5Q-21">
          <mxGeometry relative="1" as="geometry">
            <mxPoint x="885" y="1060" as="sourcePoint" />
            <mxPoint x="945" y="1060" as="targetPoint" />
          </mxGeometry>
        </mxCell>
        <mxCell id="jYvoBhNM-cIZsKbCfK5Q-36" value="" style="edgeStyle=entityRelationEdgeStyle;rounded=0;orthogonalLoop=1;jettySize=auto;html=1;startArrow=none;endArrow=none;segment=10;curved=1;sourcePerimeterSpacing=0;targetPerimeterSpacing=0;entryX=0;entryY=0.5;entryDx=0;entryDy=0;exitX=1;exitY=0.5;exitDx=0;exitDy=0;" edge="1" parent="1" source="jYvoBhNM-cIZsKbCfK5Q-15" target="jYvoBhNM-cIZsKbCfK5Q-22">
          <mxGeometry relative="1" as="geometry">
            <mxPoint x="890" y="1065" as="sourcePoint" />
            <mxPoint x="945" y="1100" as="targetPoint" />
          </mxGeometry>
        </mxCell>
        <mxCell id="jYvoBhNM-cIZsKbCfK5Q-37" value="" style="edgeStyle=entityRelationEdgeStyle;rounded=0;orthogonalLoop=1;jettySize=auto;html=1;startArrow=none;endArrow=none;segment=10;curved=1;sourcePerimeterSpacing=0;targetPerimeterSpacing=0;entryX=0;entryY=0.5;entryDx=0;entryDy=0;exitX=1;exitY=0.5;exitDx=0;exitDy=0;" edge="1" parent="1" source="jYvoBhNM-cIZsKbCfK5Q-15" target="jYvoBhNM-cIZsKbCfK5Q-23">
          <mxGeometry relative="1" as="geometry">
            <mxPoint x="890" y="1065" as="sourcePoint" />
            <mxPoint x="945" y="1140" as="targetPoint" />
          </mxGeometry>
        </mxCell>
        <mxCell id="jYvoBhNM-cIZsKbCfK5Q-38" value="苍穹业务事件中心" style="text;html=1;strokeColor=none;fillColor=none;align=center;verticalAlign=middle;whiteSpace=wrap;rounded=0;fontStyle=1;fontSize=14;" vertex="1" parent="1">
          <mxGeometry x="244" y="890" width="170" height="30" as="geometry" />
        </mxCell>
        <mxCell id="jYvoBhNM-cIZsKbCfK5Q-39" value="" style="edgeStyle=elbowEdgeStyle;elbow=horizontal;endArrow=classic;html=1;curved=0;rounded=0;endSize=8;startSize=8;dashed=1;dashPattern=8 8;fontSize=14;exitX=0.5;exitY=0;exitDx=0;exitDy=0;entryX=0.5;entryY=0;entryDx=0;entryDy=0;" edge="1" parent="1" source="jYvoBhNM-cIZsKbCfK5Q-7" target="jYvoBhNM-cIZsKbCfK5Q-8">
          <mxGeometry width="50" height="50" relative="1" as="geometry">
            <mxPoint x="550" y="940" as="sourcePoint" />
            <mxPoint x="600" y="890" as="targetPoint" />
            <Array as="points">
              <mxPoint x="570" y="960" />
            </Array>
          </mxGeometry>
        </mxCell>
        <mxCell id="jYvoBhNM-cIZsKbCfK5Q-40" value="状态管理" style="edgeLabel;html=1;align=center;verticalAlign=middle;resizable=0;points=[];fontSize=14;fontColor=#7D7B7D;" vertex="1" connectable="0" parent="jYvoBhNM-cIZsKbCfK5Q-39">
          <mxGeometry x="0.2783" y="1" relative="1" as="geometry">
            <mxPoint as="offset" />
          </mxGeometry>
        </mxCell>
        <mxCell id="jYvoBhNM-cIZsKbCfK5Q-41" value="" style="edgeStyle=elbowEdgeStyle;elbow=horizontal;endArrow=classic;html=1;curved=0;rounded=0;endSize=8;startSize=8;dashed=1;dashPattern=8 8;fontSize=14;exitX=0.5;exitY=1;exitDx=0;exitDy=0;entryX=0.5;entryY=1;entryDx=0;entryDy=0;" edge="1" parent="1" source="jYvoBhNM-cIZsKbCfK5Q-8" target="jYvoBhNM-cIZsKbCfK5Q-7">
          <mxGeometry width="50" height="50" relative="1" as="geometry">
            <mxPoint x="620" y="1150" as="sourcePoint" />
            <mxPoint x="670" y="1100" as="targetPoint" />
            <Array as="points">
              <mxPoint x="560" y="1080" />
            </Array>
          </mxGeometry>
        </mxCell>
        <mxCell id="jYvoBhNM-cIZsKbCfK5Q-42" value="重试机制" style="edgeLabel;html=1;align=center;verticalAlign=middle;resizable=0;points=[];fontSize=14;fontColor=#7D7B7D;" vertex="1" connectable="0" parent="jYvoBhNM-cIZsKbCfK5Q-41">
          <mxGeometry x="-0.287" y="-1" relative="1" as="geometry">
            <mxPoint as="offset" />
          </mxGeometry>
        </mxCell>
        <mxCell id="jYvoBhNM-cIZsKbCfK5Q-43" value="Text" style="text;html=1;strokeColor=none;fillColor=none;align=center;verticalAlign=middle;whiteSpace=wrap;rounded=0;fontSize=14;fontColor=#7D7B7D;" vertex="1" parent="1">
          <mxGeometry x="330" y="1080" width="60" height="30" as="geometry" />
        </mxCell>
      </root>
    </mxGraphModel>
  </diagram>
</mxfile>
